<mxfile host="app.diagrams.net" modified="2024-04-23T12:24:10.945Z" agent="Mozilla/5.0 (Windows NT 10.0; Win64; x64) AppleWebKit/537.36 (KHTML, like Gecko) Chrome/123.0.0.0 Safari/537.36" etag="TxAU7tgtWrV2I3QUO9MS" version="24.0.1" type="github">
  <diagram name="Page-1" id="XvgRhgUYDwZbH-GwRdoL">
    <mxGraphModel dx="1221" dy="759" grid="1" gridSize="10" guides="1" tooltips="1" connect="1" arrows="1" fold="1" page="1" pageScale="1" pageWidth="827" pageHeight="1169" math="0" shadow="0">
      <root>
        <mxCell id="0" />
        <mxCell id="1" parent="0" />
        <mxCell id="-aEtsWpQrNuW87mELgLG-3" style="edgeStyle=orthogonalEdgeStyle;rounded=0;orthogonalLoop=1;jettySize=auto;html=1;" edge="1" parent="1" source="-aEtsWpQrNuW87mELgLG-2">
          <mxGeometry relative="1" as="geometry">
            <mxPoint x="460" y="160" as="targetPoint" />
          </mxGeometry>
        </mxCell>
        <mxCell id="-aEtsWpQrNuW87mELgLG-13" value="写事务日志" style="edgeLabel;html=1;align=center;verticalAlign=middle;resizable=0;points=[];" vertex="1" connectable="0" parent="-aEtsWpQrNuW87mELgLG-3">
          <mxGeometry x="-0.2321" relative="1" as="geometry">
            <mxPoint x="15" as="offset" />
          </mxGeometry>
        </mxCell>
        <mxCell id="-aEtsWpQrNuW87mELgLG-11" style="edgeStyle=orthogonalEdgeStyle;rounded=0;orthogonalLoop=1;jettySize=auto;html=1;" edge="1" parent="1" source="-aEtsWpQrNuW87mELgLG-2" target="-aEtsWpQrNuW87mELgLG-7">
          <mxGeometry relative="1" as="geometry" />
        </mxCell>
        <mxCell id="-aEtsWpQrNuW87mELgLG-16" value="读 、写线程" style="edgeLabel;html=1;align=center;verticalAlign=middle;resizable=0;points=[];" vertex="1" connectable="0" parent="-aEtsWpQrNuW87mELgLG-11">
          <mxGeometry x="-0.019" relative="1" as="geometry">
            <mxPoint as="offset" />
          </mxGeometry>
        </mxCell>
        <mxCell id="-aEtsWpQrNuW87mELgLG-2" value="Buffer pool" style="rounded=0;whiteSpace=wrap;html=1;" vertex="1" parent="1">
          <mxGeometry x="120" y="130" width="120" height="60" as="geometry" />
        </mxCell>
        <mxCell id="-aEtsWpQrNuW87mELgLG-10" style="edgeStyle=orthogonalEdgeStyle;rounded=0;orthogonalLoop=1;jettySize=auto;html=1;" edge="1" parent="1" source="-aEtsWpQrNuW87mELgLG-4" target="-aEtsWpQrNuW87mELgLG-8">
          <mxGeometry relative="1" as="geometry" />
        </mxCell>
        <mxCell id="-aEtsWpQrNuW87mELgLG-4" value="Log buffer" style="rounded=0;whiteSpace=wrap;html=1;" vertex="1" parent="1">
          <mxGeometry x="460" y="130" width="120" height="60" as="geometry" />
        </mxCell>
        <mxCell id="-aEtsWpQrNuW87mELgLG-6" value="" style="rounded=0;whiteSpace=wrap;html=1;fillColor=none;strokeColor=default;dashed=1;" vertex="1" parent="1">
          <mxGeometry x="80" y="270" width="560" height="270" as="geometry" />
        </mxCell>
        <mxCell id="-aEtsWpQrNuW87mELgLG-7" value="数据、索引、undo日志等" style="rounded=0;whiteSpace=wrap;html=1;" vertex="1" parent="1">
          <mxGeometry x="120" y="400" width="120" height="60" as="geometry" />
        </mxCell>
        <mxCell id="-aEtsWpQrNuW87mELgLG-8" value="事务日志" style="rounded=0;whiteSpace=wrap;html=1;" vertex="1" parent="1">
          <mxGeometry x="460" y="410" width="120" height="60" as="geometry" />
        </mxCell>
        <mxCell id="-aEtsWpQrNuW87mELgLG-12" value="循环连续写入&lt;div&gt;顺序IO&lt;/div&gt;" style="ellipse;whiteSpace=wrap;html=1;" vertex="1" parent="1">
          <mxGeometry x="520" y="330" width="110" height="50" as="geometry" />
        </mxCell>
        <mxCell id="-aEtsWpQrNuW87mELgLG-14" value="文件系统&amp;nbsp;" style="text;html=1;align=center;verticalAlign=middle;whiteSpace=wrap;rounded=0;" vertex="1" parent="1">
          <mxGeometry x="320" y="300" width="60" height="30" as="geometry" />
        </mxCell>
        <mxCell id="-aEtsWpQrNuW87mELgLG-15" value="操作系统缓存" style="rounded=0;whiteSpace=wrap;html=1;fillColor=none;strokeColor=default;dashed=1;" vertex="1" parent="1">
          <mxGeometry x="115" y="220" width="470" height="30" as="geometry" />
        </mxCell>
      </root>
    </mxGraphModel>
  </diagram>
</mxfile>
